<svg id="Layer_2" xmlns="http://www.w3.org/2000/svg" viewBox="0 0 300 300"><circle cx="141.63" cy="77.54" r="19.08"/><path d="m201.46,101.94h-67.61s-9.82,3.4-14.35,9.44-10.2,19.64-12.84,21.53-15.49,0-15.49,0v18.51s18.13,1.13,21.15,0,6.8-2.61,8.11-4.58,12.15-17.89,12.15-17.89l11.98,26.32-40.22,101.56h23.47l37.59-84.38s1.48-1.64,1.97-.33.33,42.68,1.31,44.98,5.09,6.07,7.72,6.89,68.95.49,68.95.49c0,0-2.46-8.86-7.39-13.63s-11.82-8.04-11.82-8.04h-35.79s2.63-36.61,1.48-42.02-18.06-39.89-18.06-39.89l21.01.49,12.64,25.61s5.58,7.22,11.98,4.27,5.25-11.16,5.25-11.16l-23.21-38.17Z"/><polygon points="102.28 29.05 68.28 40.62 68.37 40.88 68.28 40.88 68.28 275.21 85.48 256.83 85.48 51.67 98.04 47.39 98.04 112.81 115.24 105.81 115.24 23.6 102.28 29.05"/></svg>