<svg id="Layer_2" xmlns="http://www.w3.org/2000/svg" viewBox="0 0 300 300"><defs><style>.cls-1{fill:none;}</style></defs><ellipse cx="173.15" cy="72.22" rx="20.42" ry="19.93"/><ellipse cx="227.16" cy="139.29" rx="10.35" ry="10.11"/><polyline points="79.84 35.76 79.84 36.02 79.84 280.83 97.8 261.63 97.8 47.3 110.93 42.83 110.93 91.78 128.9 91.78 128.9 17.97"/><g><path class="cls-1" d="m121.02,203.1s-2.81-38.24-1.58-43.9c1.23-5.66,19.32-41.67,19.32-41.67l-22.48.51-11.91,23.55v61.51h16.65Z"/><path d="m195.84,144.62c1.41,2.06,5.45,3.6,8.68,4.79s22.63,0,22.63,0v-19.34s-13.74,1.97-16.57,0c-2.83-1.97-8.89-16.18-13.74-22.49s-15.36-9.87-15.36-9.87h-72.35l-4.77,7.66v36.22l11.91-23.55,22.48-.51s-18.09,36.01-19.32,41.67c-1.23,5.66,1.58,43.9,1.58,43.9h-16.65v22.69c15.83-.04,30.34-.19,31.58-.57,2.81-.86,7.2-4.8,8.26-7.2,1.05-2.4.88-45.62,1.41-46.99.53-1.37,2.11.34,2.11.34l40.22,88.15h25.12l-43.03-106.1,12.82-27.5s11.59,16.64,13,18.69Z"/></g></svg>